<svg width="111" height="44" viewBox="0 0 111 44" fill="none" xmlns="http://www.w3.org/2000/svg">
<g clip-path="url(#clip0_112_45)">
<path d="M35.125 20.6875C35.125 22.0781 34.9531 23.3203 34.6094 24.4141C34.2656 25.5078 33.7969 26.4766 33.2031 27.3203C32.625 28.1484 31.9531 28.8594 31.1875 29.4531C30.4219 30.0469 29.6172 30.5391 28.7734 30.9297C27.9453 31.3047 27.1016 31.5781 26.2422 31.75C25.3984 31.9219 24.6016 32.0078 23.8516 32.0078L36.5781 43H27.1562L14.4531 32.0078H10.0703V25.9141H23.8516C24.6172 25.8516 25.3125 25.6953 25.9375 25.4453C26.5781 25.1797 27.125 24.8281 27.5781 24.3906C28.0469 23.9531 28.4062 23.4297 28.6562 22.8203C28.9062 22.1953 29.0312 21.4844 29.0312 20.6875V16.8438C29.0312 16.5 28.9844 16.2422 28.8906 16.0703C28.8125 15.8828 28.7031 15.75 28.5625 15.6719C28.4375 15.5781 28.2969 15.5234 28.1406 15.5078C28 15.4922 27.8672 15.4844 27.7422 15.4844H7.63281V43H1.53906V12.4609C1.53906 12.0391 1.61719 11.6406 1.77344 11.2656C1.92969 10.8906 2.14062 10.5625 2.40625 10.2812C2.6875 10 3.01562 9.78125 3.39062 9.625C3.76562 9.46875 4.17188 9.39062 4.60938 9.39062H27.7422C29.1016 9.39062 30.25 9.64063 31.1875 10.1406C32.125 10.625 32.8828 11.2422 33.4609 11.9922C34.0547 12.7266 34.4766 13.5234 34.7266 14.3828C34.9922 15.2422 35.125 16.0469 35.125 16.7969V20.6875ZM79.9722 0.00800674L59.6154 41.471C59.2956 42.1106 58.8159 42.6202 58.1763 43C57.5568 43.3997 56.8672 43.5996 56.1077 43.5996C55.3682 43.5996 54.6786 43.3997 54.039 43C53.4194 42.6202 52.9398 42.1106 52.6 41.471L32.2732 0.00800674H40.9975L56.1077 30.9778L71.2778 0.00800674H79.9722ZM109.801 39.9297C109.801 40.3672 109.723 40.7734 109.567 41.1484C109.411 41.5234 109.192 41.8516 108.911 42.1328C108.645 42.3984 108.325 42.6094 107.95 42.7656C107.575 42.9219 107.169 43 106.731 43H84.7467C84.1842 43 83.5748 42.9375 82.9185 42.8125C82.2779 42.6719 81.6373 42.4609 80.9967 42.1797C80.3717 41.8984 79.7701 41.5391 79.192 41.1016C78.6139 40.6484 78.0982 40.1094 77.6451 39.4844C77.2076 38.8438 76.856 38.1094 76.5904 37.2812C76.3248 36.4375 76.192 35.4922 76.192 34.4453V17.9453C76.192 17.3828 76.2545 16.7812 76.3795 16.1406C76.5201 15.4844 76.731 14.8438 77.0123 14.2188C77.2935 13.5781 77.6607 12.9688 78.1139 12.3906C78.567 11.8125 79.106 11.3047 79.731 10.8672C80.3717 10.4141 81.106 10.0547 81.9342 9.78906C82.7623 9.52344 83.6998 9.39062 84.7467 9.39062H109.52V15.4844H84.7467C83.9498 15.4844 83.3404 15.6953 82.9185 16.1172C82.4967 16.5391 82.2857 17.1641 82.2857 17.9922V34.4453C82.2857 35.2266 82.4967 35.8359 82.9185 36.2734C83.356 36.6953 83.9654 36.9062 84.7467 36.9062H103.708V29.2656H87.4889V23.125H106.731C107.169 23.125 107.575 23.2109 107.95 23.3828C108.325 23.5391 108.645 23.7578 108.911 24.0391C109.192 24.3203 109.411 24.6484 109.567 25.0234C109.723 25.3828 109.801 25.7734 109.801 26.1953V39.9297Z" fill="url(#paint0_linear_112_45)"/>
<rect x="2" width="38" height="6" fill="#38A9FF"/>
<rect x="73.5" width="37" height="6" fill="#38A9FF"/>
</g>
<defs>
<linearGradient id="paint0_linear_112_45" x1="55.5" y1="-1" x2="55.5" y2="44" gradientUnits="userSpaceOnUse">
<stop offset="0.124741" stop-color="#38A9FF"/>
<stop offset="1" stop-color="#1678C2"/>
</linearGradient>
<clipPath id="clip0_112_45">
<rect width="111" height="44" fill="white"/>
</clipPath>
</defs>
</svg>
